<?xml version="1.0" encoding="UTF-8" standalone="no"?>
<!-- Created with Inkscape (http://www.inkscape.org/) -->

<svg
   xmlns:dc="http://purl.org/dc/elements/1.1/"
   xmlns:cc="http://creativecommons.org/ns#"
   xmlns:rdf="http://www.w3.org/1999/02/22-rdf-syntax-ns#"
   xmlns:svg="http://www.w3.org/2000/svg"
   xmlns="http://www.w3.org/2000/svg"
   xmlns:sodipodi="http://sodipodi.sourceforge.net/DTD/sodipodi-0.dtd"
   xmlns:inkscape="http://www.inkscape.org/namespaces/inkscape"
   width="1000"
   height="360.966"
   viewBox="0 0 264.58333 95.505591"
   version="1.1"
   id="svg8"
   inkscape:version="0.92.4 (5da689c313, 2019-01-14)"
   sodipodi:docname="A.svg">
  <defs
     id="defs2" />
  <sodipodi:namedview
     id="base"
     pagecolor="#ffffff"
     bordercolor="#666666"
     borderopacity="1.0"
     inkscape:pageopacity="0.0"
     inkscape:pageshadow="2"
     inkscape:zoom="0.24748737"
     inkscape:cx="1946.3337"
     inkscape:cy="-914.332"
     inkscape:document-units="px"
     inkscape:current-layer="layer1"
     showgrid="false"
     units="px"
     inkscape:window-width="1920"
     inkscape:window-height="1017"
     inkscape:window-x="1912"
     inkscape:window-y="-8"
     inkscape:window-maximized="1"
     fit-margin-top="0"
     fit-margin-left="0"
     fit-margin-right="0"
     fit-margin-bottom="0">
    <inkscape:grid
       type="xygrid"
       id="grid18"
       originx="-37.882749"
       originy="-181.54284" />
  </sodipodi:namedview>
  <metadata
     id="metadata5">
    <rdf:RDF>
      <cc:Work
         rdf:about="">
        <dc:format>image/svg+xml</dc:format>
        <dc:type
           rdf:resource="http://purl.org/dc/dcmitype/StillImage" />
        <dc:title></dc:title>
      </cc:Work>
    </rdf:RDF>
  </metadata>
  <g
     inkscape:label="Layer 1"
     inkscape:groupmode="layer"
     id="layer1"
     transform="translate(-37.88275,-19.951573)">
    <path
       style="opacity:1;fill:#053450;fill-opacity:1;stroke:none;stroke-width:0.07488465;stroke-linecap:round;stroke-linejoin:round;stroke-miterlimit:2.61310005;stroke-dasharray:none;stroke-opacity:1"
       d="m 85.80674,115.45716 c -25.1041,0 -47.92399,-20.073949 -47.92399,-47.923985 0,-24.324286 19.965469,-47.581602 48.116495,-47.581602 14.643925,0 27.697295,9.243583 27.697295,9.243583 l -8.19051,11.06554 c 0,0 -9.232182,-6.569121 -19.824377,-6.569121 -19.734218,0 -33.962411,15.946709 -33.962411,33.991093 0,18.910098 15.489267,33.956722 33.945698,33.956722 12.497357,0 20.12525,-7.053895 20.12525,-7.053895 l 8.24157,11.368775 c 0,0 -11.95345,9.50289 -28.22502,9.50289 z"
       id="path20"
       inkscape:connector-curvature="0"
       sodipodi:nodetypes="ccccccccccc" />
    <path
       style="opacity:1;fill:#053450;fill-opacity:1;stroke:none;stroke-width:0.07488465;stroke-linecap:round;stroke-linejoin:round;stroke-miterlimit:2.61310005;stroke-dasharray:none;stroke-opacity:1"
       d="m 162.51511,20.097328 c -28.11153,0 -47.59564,22.039529 -47.59564,47.595636 0,27.552553 21.44378,47.670236 47.66877,47.670236 21.89611,0 47.06326,-18.052049 47.06326,-47.515195 0,-27.970103 -22.60842,-47.750677 -47.13639,-47.750677 z m -0.21208,13.682536 c 17.55862,0 33.74344,14.098468 33.74344,34.034495 0,21.000236 -18.01621,33.866301 -33.69078,33.866301 -18.77345,0 -34.12517,-14.339024 -34.12518,-33.977452 0,-18.215432 13.94858,-33.923344 34.07252,-33.923344 z"
       id="path22"
       inkscape:connector-curvature="0" />
    <path
       style="opacity:1;fill:#053450;fill-opacity:1;stroke:none;stroke-width:0.07488465;stroke-linecap:round;stroke-linejoin:round;stroke-miterlimit:2.61310005;stroke-dasharray:none;stroke-opacity:1"
       d="M 276.63086,99.091962 V 112.5712 h -68.41249 l 46.4285,-75.25908 H 210.43282 V 23.832881 h 68.33762 L 232.4489,99.091962 Z"
       id="path26"
       inkscape:connector-curvature="0"
       sodipodi:nodetypes="ccccccccc" />
    <path
       style="opacity:1;fill:#053450;fill-opacity:1;stroke:none;stroke-width:0.07488465;stroke-linecap:round;stroke-linejoin:round;stroke-miterlimit:2.61310005;stroke-dasharray:none;stroke-opacity:1"
       d="M 288.98684,112.5712 V 23.832881 h 13.47924 V 112.5712 Z"
       id="path28"
       inkscape:connector-curvature="0"
       sodipodi:nodetypes="ccccc" />
    <path
       style="opacity:1;fill:#053450;fill-opacity:1;stroke:none;stroke-width:0.07488465;stroke-linecap:round;stroke-linejoin:round;stroke-miterlimit:2.61310005;stroke-dasharray:none;stroke-opacity:1"
       d="m 147.08039,79.172661 h 6.73962 V 55.658855 h 9.73501 v -6.514957 h -26.20963 v 6.514957 h 9.735 z"
       id="path30"
       inkscape:connector-curvature="0"
       sodipodi:nodetypes="ccccccccc" />
    <path
       style="opacity:1;fill:#053450;fill-opacity:1;stroke:none;stroke-width:0.07488465;stroke-linecap:round;stroke-linejoin:round;stroke-miterlimit:2.61310005;stroke-dasharray:none;stroke-opacity:1"
       d="m 158.31309,60.900784 h 7.2048 l 8.33947,19.477607 8.41882,-19.477607 h 6.97601 l -12.83255,28.456181 h -5.2816 z"
       id="path34"
       inkscape:connector-curvature="0"
       sodipodi:nodetypes="cccccccc" />
  </g>
</svg>
